<svg width="30" height="30" viewBox="0 0 30 30" fill="none" xmlns="http://www.w3.org/2000/svg">
<path d="M25.1343 12.077L6.35572 3.2439C5.48241 2.81775 4.49106 2.9568 3.76881 3.60803C3.04555 4.26026 2.80346 5.2326 3.16759 6.20995L7.85725 15.008L3.22461 23.8692C2.8915 24.7835 3.13458 25.7558 3.85984 26.4061C4.30499 26.8062 4.85319 27.0113 5.41038 27.0113C5.75951 27.0113 6.11063 26.9313 6.44475 26.7672L25.1373 17.9421C26.2867 17.4029 27.001 16.2775 27 15.0061C27 13.7356 26.2827 12.6132 25.1343 12.077ZM4.07891 5.8028C3.84983 5.17858 4.11393 4.6444 4.43804 4.35229C4.65212 4.16022 4.96723 4.00317 5.33036 4.00317C5.51742 4.00317 5.71649 4.04518 5.92056 4.14522C5.92256 4.14522 5.92557 4.14722 5.92757 4.14822L24.7092 12.9833C25.3594 13.2874 25.7986 13.8376 25.9456 14.5059H8.72255L4.07891 5.8028ZM24.7102 17.0378L6.0106 25.8669C5.41339 26.158 4.85419 25.9529 4.52907 25.6618C4.20396 25.3707 3.93787 24.8365 4.13894 24.2713L8.72555 15.5052H25.9476C25.8036 16.1765 25.3634 16.7307 24.7102 17.0368V17.0378Z" fill="#15803D"/>
</svg>
